# xmcd
# 
# Track frame offsets:
#     150
#     14067
#     28147
#     37747
#     50075
#     62182
#     76962
#     87275
#     100117
#     112680
#     122782
#     136447
# 
# Disc length: 1974
# 
# Revision: 4
# Processed by: cddbd v1.5.2PL0 Copyright (c) Steve Scherf et al.
# Submitted via: fre:ac v1.0.31
# 
DISCID=9a07b40c
DTITLE=Columbia Blues - Albert Collins Truckin' With Albert Collins
DYEAR=1969
DGENRE=Blues
TTITLE0=Frosty
TTITLE1=Hot 'N Cold
TTITLE2=Frostbite
TTITLE3=Tremble
TTITLE4=Thaw Out
TTITLE5=Dyin' Flu
TTITLE6=Don't Lose Your Cool
TTITLE7=Backstroke
TTITLE8=Kool Aide
TTITLE9=Shiver 'N Shake
TTITLE10=Icy Blue
TTITLE11=Snow-Cone II
EXTD=YEAR: 1969
EXTT0=
EXTT1=
EXTT2=
EXTT3=
EXTT4=
EXTT5=
EXTT6=
EXTT7=
EXTT8=
EXTT9=
EXTT10=
EXTT11=
PLAYORDER=
